<?xml version="1.0" standalone="no"?>
<!DOCTYPE svg PUBLIC "-//W3C//DTD SVG 20010904//EN"
 "http://www.w3.org/TR/2001/REC-SVG-20010904/DTD/svg10.dtd">
<svg version="1.0" xmlns="http://www.w3.org/2000/svg"
 width="417.000000pt" height="417.000000pt" viewBox="0 0 417.000000 417.000000"
 preserveAspectRatio="xMidYMid meet">
<metadata>
Created by potrace 1.11, written by Peter Selinger 2001-2013
</metadata>
<g transform="translate(0.000000,417.000000) scale(0.100000,-0.100000)"
fill="#000000" stroke="none">
<path d="M1850 4014 c-62 -10 -146 -26 -153 -31 -4 -2 2 -12 12 -21 16 -14 25
-45 41 -157 23 -161 25 -206 8 -223 -6 -6 -9 -15 -5 -18 8 -9 276 25 300 38
12 6 17 21 17 53 0 25 -4 45 -10 45 -5 0 -10 -4 -10 -9 0 -5 -15 -26 -34 -45
-30 -32 -39 -36 -84 -36 -61 0 -67 7 -75 102 -5 54 -3 67 9 72 31 12 72 6 98
-15 l26 -20 0 35 c0 19 -5 47 -10 62 l-10 26 -25 -26 c-18 -20 -34 -26 -64
-26 -46 0 -49 5 -53 105 l-3 60 53 3 c41 2 59 -2 83 -19 36 -25 43 -21 34 20
-6 30 -8 31 -63 30 -31 -1 -68 -3 -82 -5z"/>
<path d="M2263 4003 c21 -24 21 -55 2 -181 -26 -167 -34 -192 -64 -203 -39
-15 -15 -24 137 -49 125 -21 134 -22 151 -6 20 18 36 64 26 74 -3 3 -19 -8
-36 -24 -25 -24 -38 -29 -76 -27 -79 3 -80 8 -54 187 28 195 29 195 60 208
l26 11 -28 8 c-15 4 -58 11 -95 15 -66 7 -67 6 -49 -13z"/>
<path d="M2784 3881 c22 -25 20 -31 -63 -206 -49 -103 -74 -143 -92 -151 -22
-10 -16 -15 98 -73 68 -33 128 -61 135 -61 16 0 68 51 68 67 0 11 -7 10 -32
-3 -40 -21 -113 -14 -140 13 -19 19 -19 20 2 74 43 109 130 267 150 272 35 9
22 24 -50 56 -81 36 -100 39 -76 12z"/>
<path d="M1300 3851 c-30 -9 -88 -35 -129 -56 -71 -38 -73 -39 -47 -48 22 -7
39 -34 92 -144 72 -150 81 -181 65 -212 -16 -29 -5 -27 86 15 l78 37 -32 8
c-24 7 -37 21 -57 61 -50 101 -27 113 80 43 56 -36 78 -45 116 -45 90 0 103
24 31 59 -25 12 -68 37 -95 54 -53 34 -51 26 -32 116 10 49 -13 101 -52 117
-40 17 -36 17 -104 -5z m49 -65 c14 -15 25 -42 28 -68 4 -37 1 -47 -21 -67
-15 -14 -31 -21 -41 -17 -8 3 -31 38 -50 78 -39 82 -35 98 24 98 27 0 44 -7
60 -24z"/>
<path d="M3240 3403 c-118 -51 -187 -76 -212 -76 -21 0 -38 -3 -38 -6 0 -9 84
-91 94 -91 4 0 4 9 1 21 -8 25 14 52 55 69 27 11 33 9 70 -20 58 -46 63 -59
38 -108 -15 -32 -26 -42 -44 -42 -13 0 -24 -4 -24 -8 0 -9 103 -112 112 -112
3 0 9 19 12 43 4 23 40 118 81 211 58 130 72 172 64 182 -6 8 -17 14 -23 13
-6 0 -90 -35 -186 -76z m79 -46 c-35 -69 -37 -70 -75 -41 -19 15 -34 30 -34
34 0 10 112 60 122 54 4 -3 -2 -24 -13 -47z"/>
<path d="M717 3454 c-13 -14 -7 -34 68 -209 45 -105 75 -190 75 -211 0 -43 14
-43 57 2 34 37 35 49 5 49 -9 0 -30 19 -46 43 l-30 43 52 52 52 52 45 -24 c29
-15 45 -31 45 -42 0 -11 6 -19 13 -19 13 0 117 100 117 113 0 4 -19 7 -41 7
-29 0 -95 22 -213 71 -94 39 -176 73 -182 76 -5 2 -13 0 -17 -3z m181 -169 c7
-6 -51 -64 -59 -60 -17 11 -61 94 -54 105 5 8 92 -27 113 -45z"/>
<path d="M1830 3384 c-219 -46 -456 -174 -624 -334 -163 -156 -283 -355 -348
-580 -33 -114 -33 -116 -33 -330 0 -213 0 -216 33 -330 127 -442 450 -769 885
-894 128 -37 195 -46 354 -46 152 0 241 13 381 56 355 108 660 389 804 742 62
152 78 234 85 422 8 245 -27 412 -131 617 -89 177 -238 351 -396 462 -145 102
-346 189 -500 217 -101 18 -423 17 -510 -2z m410 -49 c121 -62 197 -142 265
-280 59 -119 76 -187 82 -325 5 -98 2 -130 -17 -205 -45 -182 -167 -366 -320
-486 -39 -30 -70 -60 -70 -66 0 -13 12 -25 69 -70 21 -17 48 -57 72 -107 36
-73 39 -87 39 -163 0 -126 -38 -218 -133 -319 -40 -43 -108 -104 -152 -137
-92 -68 -254 -149 -345 -173 -77 -19 -103 -13 -233 53 -316 163 -545 468 -617
823 -26 127 -28 342 -5 474 77 439 408 813 840 949 220 69 428 81 525 32z
m272 -54 c81 -28 211 -95 297 -154 168 -115 349 -330 420 -501 119 -285 131
-573 36 -861 -156 -478 -556 -795 -1067 -846 -85 -8 -141 -8 -228 1 -63 7
-119 14 -123 17 -5 3 34 28 85 57 161 88 274 186 383 331 45 59 112 172 126
212 2 6 42 17 87 23 105 14 197 42 287 87 81 40 80 39 89 76 5 20 3 27 -9 27
-8 0 -15 -4 -15 -9 0 -15 -103 -60 -177 -77 -80 -19 -191 -14 -226 9 -17 11
-26 29 -31 58 -10 60 -58 157 -105 211 l-40 45 31 29 c57 54 171 217 224 321
124 243 123 483 -3 787 -14 33 -43 86 -64 118 -22 32 -38 58 -36 58 2 0 29 -8
59 -19z"/>
<path d="M1974 2976 c-67 -31 -118 -77 -143 -130 -43 -87 -24 -201 98 -615 33
-113 59 -206 58 -208 -2 -1 -41 -18 -88 -37 -81 -33 -84 -35 -82 -66 0 -17 4
-34 7 -37 6 -6 265 84 280 98 5 4 -43 158 -109 350 -132 387 -135 402 -75 464
67 69 225 113 355 99 l60 -7 -24 27 c-14 14 -52 40 -85 56 -78 40 -175 42
-252 6z"/>
<path d="M1316 2658 c-52 -14 -129 -92 -161 -160 -21 -45 -25 -67 -24 -148 0
-52 4 -104 8 -115 8 -18 10 -17 27 14 87 157 197 275 316 340 37 20 68 39 68
43 0 24 -174 43 -234 26z"/>
<path d="M2130 1804 c-8 -8 -33 -27 -57 -41 -154 -90 -339 -103 -477 -33 -46
23 -62 27 -73 19 -20 -17 7 -44 81 -81 133 -67 319 -90 441 -54 75 22 154 62
162 82 7 18 -38 124 -53 124 -6 0 -17 -7 -24 -16z"/>
<path d="M2835 2563 c-52 -21 -115 -63 -129 -86 -8 -13 -8 -20 4 -27 50 -32
259 -50 355 -30 62 13 155 48 155 59 0 3 -39 26 -86 51 -80 40 -94 44 -173 47
-63 2 -97 -1 -126 -14z"/>
<path d="M457 3108 c-24 -24 -100 -157 -112 -195 -5 -19 -3 -23 16 -23 22 0
184 -81 269 -135 23 -15 45 -35 47 -46 9 -34 28 -21 67 46 40 69 42 84 6 65
-18 -9 -32 -6 -85 19 l-64 30 31 60 c38 74 34 117 -17 168 -29 29 -40 33 -84
33 -40 0 -57 -5 -74 -22z m80 -67 c48 -22 63 -45 63 -96 0 -53 -22 -55 -110
-9 -86 45 -98 68 -54 103 33 26 47 26 101 2z"/>
<path d="M3802 2898 c-25 -25 -6 -68 29 -68 26 0 32 17 19 51 -13 31 -29 36
-48 17z"/>
<path d="M3680 2865 c0 -22 -163 -99 -206 -98 -19 1 -34 -1 -34 -4 0 -2 12
-29 26 -59 26 -54 40 -66 50 -40 3 7 57 38 119 67 63 30 115 58 115 63 0 14
-51 86 -61 86 -5 0 -9 -7 -9 -15z"/>
<path d="M3950 2346 c-14 -13 -65 -40 -115 -61 -190 -79 -275 -117 -275 -125
0 -16 33 -32 211 -99 130 -50 191 -78 207 -96 l22 -26 0 67 c0 65 -1 67 -19
50 -19 -18 -69 -15 -101 4 -17 10 -33 132 -18 141 6 4 28 12 50 20 31 10 44
10 59 1 10 -7 21 -12 24 -12 7 0 6 91 -1 129 -8 37 -12 38 -44 7z m-130 -216
c0 -35 -3 -40 -22 -39 -32 1 -91 23 -95 36 -4 12 61 42 95 42 19 1 22 -4 22
-39z"/>
<path d="M305 2343 c-80 -42 -115 -103 -122 -214 -8 -104 -1 -125 47 -149 58
-29 66 -25 30 17 -49 56 -63 95 -49 145 26 99 131 139 279 107 130 -28 161
-183 51 -256 l-34 -23 51 0 c65 0 75 16 75 125 0 133 -52 220 -152 254 -48 16
-141 13 -176 -6z"/>
<path d="M3534 1823 c-3 -16 -10 -44 -15 -63 -5 -19 -9 -45 -9 -58 l0 -23 26
20 c29 23 22 23 219 -17 105 -21 134 -31 153 -51 12 -13 25 -21 28 -18 9 8 34
117 34 146 0 23 -1 23 -18 8 -26 -24 -63 -21 -225 14 -106 22 -146 35 -156 50
-19 26 -30 24 -37 -8z"/>
<path d="M410 1764 c-95 -41 -140 -106 -140 -204 0 -72 19 -123 63 -168 50
-53 83 -66 163 -66 81 1 118 18 177 84 77 84 69 210 -17 303 -56 61 -169 84
-246 51z m229 -88 c52 -28 65 -92 28 -147 -32 -48 -93 -86 -166 -105 -107 -27
-181 -4 -197 61 -18 72 62 161 176 196 42 12 129 10 159 -5z"/>
<path d="M3457 1538 c-37 -50 -76 -132 -83 -176 -9 -58 18 -141 61 -185 51
-53 96 -69 177 -65 96 5 139 37 196 147 48 91 49 110 8 158 -34 39 -42 23 -22
-42 28 -88 -2 -146 -91 -176 -67 -22 -190 17 -243 77 -78 89 -47 222 56 239
68 11 72 15 34 35 -49 27 -66 25 -93 -12z"/>
<path d="M820 1286 c0 -34 -7 -45 -47 -83 -94 -87 -203 -163 -234 -163 -16 0
-29 -4 -29 -9 0 -11 63 -90 73 -90 4 -1 7 14 7 33 0 31 9 43 90 113 86 74 120
95 120 76 0 -5 -13 -88 -30 -184 -31 -182 -36 -239 -21 -239 5 0 67 46 138
101 164 130 167 132 203 127 41 -6 38 8 -15 67 l-45 50 0 -39 c0 -34 -7 -45
-52 -88 -74 -69 -117 -102 -125 -94 -3 3 4 79 16 168 28 211 28 211 -14 256
l-34 37 -1 -39z"/>
<path d="M3187 1112 c-44 -45 -46 -55 -11 -46 22 6 36 -5 112 -82 64 -65 83
-89 70 -91 -9 -3 -81 3 -159 11 -210 23 -222 23 -267 -19 l-37 -34 40 -1 c37
0 46 -6 119 -82 96 -102 133 -155 138 -196 l3 -32 45 36 c57 45 60 54 18 54
-29 0 -44 12 -120 91 -49 50 -88 95 -88 100 0 12 15 12 190 -11 163 -21 250
-25 250 -12 0 4 -36 48 -80 97 -124 138 -172 205 -167 232 6 34 -14 28 -56
-15z"/>
<path d="M1205 882 c15 -29 13 -59 -19 -332 -8 -63 -10 -119 -5 -124 11 -12
32 3 164 113 143 119 178 143 223 151 l37 6 -49 32 c-48 30 -86 41 -86 24 0
-4 5 -13 11 -19 8 -8 7 -17 -5 -35 -20 -28 -175 -168 -187 -168 -12 0 -11 90
1 170 15 99 19 108 40 115 11 3 20 10 20 14 0 9 -132 81 -148 81 -6 0 -5 -11
3 -28z"/>
<path d="M2537 833 c-4 -3 -7 -17 -7 -30 0 -21 4 -23 49 -23 52 0 81 7 81 19
0 7 -16 13 -101 37 -8 2 -18 1 -22 -3z"/>
<path d="M2646 747 c-66 -29 -121 -57 -123 -62 -2 -6 7 -15 19 -20 17 -7 37
-47 80 -155 32 -80 58 -154 58 -165 0 -11 -7 -31 -16 -43 -8 -12 -11 -22 -5
-22 19 0 286 111 300 125 10 10 11 23 5 50 -12 49 -25 48 -42 -3 -15 -45 -60
-77 -117 -84 -26 -3 -30 2 -56 66 -16 38 -29 75 -29 81 0 19 57 38 95 32 19
-3 37 -2 39 2 7 11 -31 91 -44 91 -5 0 -10 -6 -10 -13 0 -20 -41 -54 -73 -62
-25 -7 -29 -4 -51 46 -40 93 -41 96 -7 113 36 19 94 21 121 4 10 -7 22 -10 25
-6 9 8 -27 78 -39 77 -6 0 -65 -23 -130 -52z"/>
<path d="M1690 681 c0 -6 5 -13 11 -17 30 -18 -33 -343 -73 -377 -11 -10 -19
-19 -16 -22 7 -8 122 -35 147 -35 23 0 23 1 8 18 -25 27 -21 78 15 230 30 124
35 137 62 153 35 21 33 22 -72 44 -87 18 -82 17 -82 6z"/>
<path d="M2333 653 c-52 -4 -69 -18 -37 -30 13 -5 15 -15 10 -47 -11 -70 -58
-236 -67 -236 -10 0 -94 164 -115 222 -11 32 -11 40 2 53 14 13 14 16 0 21
-18 7 -166 -5 -166 -13 0 -3 11 -14 26 -25 14 -12 64 -99 120 -209 52 -104 98
-189 103 -189 11 0 52 105 101 255 39 119 63 170 85 179 15 5 12 28 -3 24 -4
-1 -31 -3 -59 -5z"/>
</g>
</svg>
